<?xml version="1.0" encoding="utf-8" standalone="yes"?>
<!DOCTYPE svg PUBLIC "-//W3C//DTD SVG 1.1//EN" "http://www.w3.org/Graphics/SVG/1.1/DTD/svg11.dtd">
<svg version="1.1" xmlns="http://www.w3.org/2000/svg" xmlns:xlink="http://www.w3.org/1999/xlink" width="13.333333in" height="7.5in" class="slides-canvas" viewBox="0 0 960 540">
  <g text-rendering="geometricPrecision" transform="scale(1, 1)">
    <rect x="0" y="0" width="960" height="540" fill="#FFFFFF" />
    <path fill="#2683C6" d="M0 504L959.75 504 959.75 540 0 540z" />
    <path fill="#1CADE4" d="M0 498.77L959.75 498.77 959.75 503.81 0 503.81z" />
    <path fill="#2383C6" d="M507.03 74.45L493.15 74.45 493.15 74.45C493.15 53.78 477.57 36.43 457.03 34.22 436.48 32.01 417.57 45.64 413.17 65.83 408.77 86.03 420.3 106.29 439.91 112.83L439.32 104.47 456.03 121.73 441.54 135.99 440.94 127.49 440.94 127.49C413.14 121.33 394.81 94.75 398.94 66.57 403.07 38.4 428.24 18.18 456.64 20.25 485.04 22.32 507.03 45.97 507.03 74.45z" />
    <path stroke-width="1.25" stroke="#FFFFFF" fill="none" d="M507.03 74.45L493.15 74.45 493.15 74.45C493.15 53.78 477.57 36.43 457.03 34.22 436.48 32.01 417.57 45.64 413.17 65.83 408.77 86.03 420.3 106.29 439.91 112.83L439.32 104.47 456.03 121.73 441.54 135.99 440.94 127.49 440.94 127.49C413.14 121.33 394.81 94.75 398.94 66.57 403.07 38.4 428.24 18.18 456.64 20.25 485.04 22.32 507.03 45.97 507.03 74.45z" />
    <g transform="matrix(1, 0, 0, 1, 417.76755, 57.51733)"></g>
</svg>